<svg width="113" height="112" viewBox="0 0 113 112" fill="none" xmlns="http://www.w3.org/2000/svg">
<path d="M104.938 9.10938H87.9844V2.40625C87.9844 1.81366 87.7292 1.24534 87.275 0.826309C86.8208 0.407282 86.2048 0.171875 85.5625 0.171875C84.9202 0.171875 84.3042 0.407282 83.85 0.826309C83.3958 1.24534 83.1406 1.81366 83.1406 2.40625V9.10938H29.8594V2.40625C29.8594 1.81366 29.6042 1.24534 29.15 0.826309C28.6958 0.407282 28.0798 0.171875 27.4375 0.171875C26.7952 0.171875 26.1792 0.407282 25.725 0.826309C25.2708 1.24534 25.0156 1.81366 25.0156 2.40625V9.10938H8.0625C6.13554 9.10938 4.2875 9.81559 2.92493 11.0727C1.56236 12.3298 0.796875 14.0347 0.796875 15.8125V105.188C0.796875 106.965 1.56236 108.67 2.92493 109.927C4.2875 111.184 6.13554 111.891 8.0625 111.891H104.938C106.864 111.891 108.713 111.184 110.075 109.927C111.438 108.67 112.203 106.965 112.203 105.188V15.8125C112.203 14.0347 111.438 12.3298 110.075 11.0727C108.713 9.81559 106.864 9.10938 104.938 9.10938ZM8.0625 13.5781H25.0156V20.2812C25.0156 20.8738 25.2708 21.4422 25.725 21.8612C26.1792 22.2802 26.7952 22.5156 27.4375 22.5156C28.0798 22.5156 28.6958 22.2802 29.15 21.8612C29.6042 21.4422 29.8594 20.8738 29.8594 20.2812V13.5781H83.1406V20.2812C83.1406 20.8738 83.3958 21.4422 83.85 21.8612C84.3042 22.2802 84.9202 22.5156 85.5625 22.5156C86.2048 22.5156 86.8208 22.2802 87.275 21.8612C87.7292 21.4422 87.9844 20.8738 87.9844 20.2812V13.5781H104.938C105.58 13.5781 106.196 13.8135 106.65 14.2326C107.104 14.6516 107.359 15.2199 107.359 15.8125V35.9219H5.64062V15.8125C5.64062 15.2199 5.89579 14.6516 6.34998 14.2326C6.80417 13.8135 7.42018 13.5781 8.0625 13.5781ZM104.938 107.422H8.0625C7.42018 107.422 6.80417 107.186 6.34998 106.767C5.89579 106.348 5.64062 105.78 5.64062 105.188V40.3906H107.359V105.188C107.359 105.78 107.104 106.348 106.65 106.767C106.196 107.186 105.58 107.422 104.938 107.422ZM44.3906 56.0312V91.7812C44.3906 92.3738 44.1355 92.9422 43.6813 93.3612C43.2271 93.7802 42.6111 94.0156 41.9688 94.0156C41.3264 94.0156 40.7104 93.7802 40.2562 93.3612C39.802 92.9422 39.5469 92.3738 39.5469 91.7812V59.6454L33.365 62.4998C32.7902 62.765 32.1246 62.8086 31.5149 62.6211C30.9051 62.4336 30.4011 62.0303 30.1137 61.4999C29.8262 60.9695 29.7789 60.3555 29.9822 59.793C30.1854 59.2304 30.6226 58.7654 31.1975 58.5002L40.885 54.0315C41.2543 53.861 41.6648 53.7804 42.0775 53.7975C42.4901 53.8146 42.8911 53.9288 43.2424 54.1292C43.5937 54.3296 43.8836 54.6096 44.0846 54.9425C44.2856 55.2754 44.3909 55.6502 44.3906 56.0312ZM80.7188 71.6719L66.1875 89.5469H80.7188C81.3611 89.5469 81.9771 89.7823 82.4313 90.2013C82.8855 90.6203 83.1406 91.1887 83.1406 91.7812C83.1406 92.3738 82.8855 92.9422 82.4313 93.3612C81.9771 93.7802 81.3611 94.0156 80.7188 94.0156H61.3438C60.894 94.0156 60.4531 93.9001 60.0705 93.6819C59.6879 93.4638 59.3787 93.1516 59.1776 92.7805C58.9764 92.4093 58.8913 91.9939 58.9317 91.5806C58.972 91.1673 59.1364 90.7726 59.4062 90.4406L76.8316 69.0074C77.7877 67.8463 78.3027 66.4269 78.2969 64.9688C78.2987 63.4918 77.7717 62.0556 76.7977 60.8834C75.8238 59.7112 74.4575 58.8686 72.9111 58.4864C71.3647 58.1043 69.7248 58.204 68.2462 58.7702C66.7676 59.3363 65.5331 60.3372 64.7344 61.6172C64.3993 62.1035 63.8734 62.4516 63.2667 62.5887C62.66 62.7258 62.0193 62.6414 61.4785 62.353C60.9377 62.0645 60.5386 61.5945 60.3645 61.041C60.1905 60.4876 60.255 59.8935 60.5445 59.3828C61.8774 57.2531 63.9348 55.5887 66.3975 54.6477C68.8602 53.7066 71.5907 53.5415 74.1654 54.178C76.7402 54.8145 79.0154 56.2171 80.6381 58.1681C82.2609 60.1191 83.1405 62.5095 83.1406 64.9688C83.1499 67.3874 82.2991 69.7421 80.7188 71.6719Z" fill="#003D5B"/>
</svg>
