<svg width="27" height="26" viewBox="0 0 27 26" fill="none" xmlns="http://www.w3.org/2000/svg">
<path d="M27 13C27 20.1797 20.9558 26 13.5 26C6.04416 26 0 20.1797 0 13C0 5.8203 6.04416 0 13.5 0C20.9558 0 27 5.8203 27 13Z" fill="white"/>
<path d="M18.7437 13.8647L12.103 19.1378C11.644 19.5023 10.9019 19.5023 10.4478 19.1378L9.34424 18.2616C8.88525 17.8971 8.88525 17.3077 9.34424 16.9472L14.0513 13.2095L9.34424 9.47177C8.88525 9.1073 8.88525 8.51795 9.34424 8.15737L10.4429 7.27335C10.9019 6.90888 11.644 6.90888 12.0981 7.27335L18.7388 12.5464C19.2026 12.9109 19.2026 13.5003 18.7437 13.8647Z" fill="#30638E"/>
</svg>
