<svg width="96" height="96" viewBox="0 0 96 96" fill="none" xmlns="http://www.w3.org/2000/svg">
<g clip-path="url(#clip0_98_17)">
<path d="M76 8C78.1217 8 80.1566 8.84285 81.6569 10.3431C83.1571 11.8434 84 13.8783 84 16V64C84 66.1217 83.1571 68.1566 81.6569 69.6569C80.1566 71.1571 78.1217 72 76 72H68V80C68 82.1217 67.1571 84.1566 65.6569 85.6569C64.1566 87.1571 62.1217 88 60 88H20C17.8783 88 15.8434 87.1571 14.3431 85.6569C12.8429 84.1566 12 82.1217 12 80V32C12 29.8783 12.8429 27.8434 14.3431 26.3431C15.8434 24.8429 17.8783 24 20 24H28V16C28 13.8783 28.8429 11.8434 30.3431 10.3431C31.8434 8.84285 33.8783 8 36 8H76ZM60 32H20V80H60V32ZM40 60C41.0609 60 42.0783 60.4214 42.8284 61.1716C43.5786 61.9217 44 62.9391 44 64C44 65.0609 43.5786 66.0783 42.8284 66.8284C42.0783 67.5786 41.0609 68 40 68H32C30.9391 68 29.9217 67.5786 29.1716 66.8284C28.4214 66.0783 28 65.0609 28 64C28 62.9391 28.4214 61.9217 29.1716 61.1716C29.9217 60.4214 30.9391 60 32 60H40ZM76 16H36V24H60C62.1217 24 64.1566 24.8429 65.6569 26.3431C67.1571 27.8434 68 29.8783 68 32V64H76V16ZM48 44C49.0195 44.0011 50.0001 44.3915 50.7415 45.0914C51.4828 45.7913 51.9289 46.7478 51.9887 47.7656C52.0484 48.7833 51.7173 49.7855 51.0629 50.5673C50.4086 51.3491 49.4804 51.8516 48.468 51.972L48 52H32C30.9805 51.9989 29.9999 51.6085 29.2585 50.9086C28.5172 50.2087 28.0711 49.2522 28.0113 48.2344C27.9516 47.2167 28.2827 46.2145 28.9371 45.4327C29.5914 44.6509 30.5196 44.1484 31.532 44.028L32 44H48Z" fill="#699BF7"/>
</g>
<defs>
<clipPath id="clip0_98_17">
<rect width="96" height="96" fill="white"/>
</clipPath>
</defs>
</svg>
