<svg width="96" height="96" viewBox="0 0 96 96" fill="none" xmlns="http://www.w3.org/2000/svg">
<path d="M0 18V24H57V69H38.532C37.194 63.843 32.556 60 27 60C21.444 60 16.806 63.843 15.468 69H12V54H6V75H15.468C16.806 80.157 21.444 84 27 84C32.556 84 37.194 80.157 38.532 75H63.468C64.806 80.157 69.444 84 75 84C80.556 84 85.194 80.157 86.532 75H96V50.532L95.811 50.061L89.811 32.061L89.16 30H63V18H0ZM3 30V36H30V30H3ZM63 36H84.843L90 51.375V69H86.532C85.194 63.843 80.556 60 75 60C69.444 60 64.806 63.843 63.468 69H63V36ZM6 42V48H24V42H6ZM27 66C30.351 66 33 68.649 33 72C33 75.351 30.351 78 27 78C23.649 78 21 75.351 21 72C21 68.649 23.649 66 27 66ZM75 66C78.351 66 81 68.649 81 72C81 75.351 78.351 78 75 78C71.649 78 69 75.351 69 72C69 68.649 71.649 66 75 66Z" fill="#699BF7"/>
</svg>
