<svg width="14" height="16" viewBox="0 0 14 16" fill="none" xmlns="http://www.w3.org/2000/svg">
<g clip-path="url(#clip0_25_94)">
<path d="M12.573 3.44824C12.52 3.44238 12.4666 3.44238 12.4136 3.44824H1.52471C1.45493 3.44939 1.3856 3.4606 1.3186 3.48157L6.93805 9.4774L12.573 3.44824Z" fill="#6F6F6F"/>
<path d="M13.1486 4.02734L7.48641 10.069C7.34068 10.2242 7.14355 10.3113 6.93808 10.3113C6.7326 10.3113 6.53547 10.2242 6.38974 10.069L0.778077 4.07318C0.760825 4.14111 0.751678 4.21111 0.750854 4.28151V12.6148C0.750854 12.8359 0.832799 13.0478 0.97866 13.2041C1.12452 13.3604 1.32235 13.4482 1.52863 13.4482H12.4175C12.6238 13.4482 12.8216 13.3604 12.9675 13.2041C13.1134 13.0478 13.1953 12.8359 13.1953 12.6148V4.28151C13.1922 4.1947 13.1765 4.10894 13.1486 4.02734ZM2.06141 12.6148H1.52085V12.019L4.34808 9.01484L4.89641 9.60234L2.06141 12.6148ZM12.4097 12.6148H11.8653L9.0303 9.60234L9.57863 9.01484L12.4059 12.019L12.4097 12.6148Z" fill="#6F6F6F"/>
</g>
<defs>
<clipPath id="clip0_25_94">
<rect width="14" height="15" fill="white" transform="translate(0.000244141 0.948242)"/>
</clipPath>
</defs>
</svg>
