<svg width="23" height="19" viewBox="0 0 23 19" fill="none" xmlns="http://www.w3.org/2000/svg">
<path d="M20.5357 0H2.46429C1.81072 0 1.18392 0.214476 0.721773 0.596247C0.259629 0.978017 0 1.49581 0 2.03571L0 16.9643C0 17.5042 0.259629 18.022 0.721773 18.4038C1.18392 18.7855 1.81072 19 2.46429 19H9.5106V12.5404H6.27623V9.5H9.5106V7.18268C9.5106 4.54685 11.4102 3.09089 14.3196 3.09089C15.7129 3.09089 17.1699 3.29616 17.1699 3.29616V5.88321H15.5645C13.9828 5.88321 13.4894 6.69411 13.4894 7.52578V9.5H17.0205L16.4558 12.5404H13.4894V19H20.5357C21.1893 19 21.8161 18.7855 22.2782 18.4038C22.7404 18.022 23 17.5042 23 16.9643V2.03571C23 1.49581 22.7404 0.978017 22.2782 0.596247C21.8161 0.214476 21.1893 0 20.5357 0Z" fill="black"/>
</svg>
