<svg width="96" height="96" viewBox="0 0 96 96" fill="none" xmlns="http://www.w3.org/2000/svg">
<path d="M91.4895 43.8101L79.5 33.1528V16.7574L65.7426 3H28.5V27H15C13.807 27.0014 12.6632 27.4759 11.8196 28.3196C10.9759 29.1632 10.5014 30.307 10.5 31.5V88.5C10.5014 89.693 10.9759 90.8368 11.8196 91.6804C12.6632 92.5241 13.807 92.9986 15 93H93V47.1737C92.9997 46.5382 92.865 45.91 92.6047 45.3303C92.3443 44.7506 91.9643 44.2325 91.4895 43.8101ZM28.5 87H16.5V33H28.5V87ZM61.5 9H63.2574L73.5 19.2426V21H61.5V9ZM34.5 9H55.5V27H73.5V40.5H34.5V9ZM87 87H34.5V46.5H79.5V41.1804L87 47.8474V87Z" fill="#699BF7"/>
<path d="M43.5 64.5H49.5V70.5H43.5V64.5ZM55.5 64.5H61.5V70.5H55.5V64.5ZM43.5 76.5H49.5V82.5H43.5V76.5ZM55.5 76.5H61.5V82.5H55.5V76.5ZM67.5 64.5H73.5V70.5H67.5V64.5ZM67.5 76.5H73.5V82.5H67.5V76.5ZM43.5 52.5H73.5V58.5H43.5V52.5Z" fill="#699BF7"/>
</svg>
