<svg width="89" height="104" viewBox="0 0 89 104" fill="none" xmlns="http://www.w3.org/2000/svg">
<path fill-rule="evenodd" clip-rule="evenodd" d="M52.0248 0.699998H9.57505C7.04886 0.699998 4.62614 1.6008 2.83986 3.20424C1.05357 4.80767 0.0500488 6.9824 0.0500488 9.25V94.75C0.0500488 97.0176 1.05357 99.1923 2.83986 100.796C4.62614 102.399 7.04886 103.3 9.57505 103.3H79.425C81.9512 103.3 84.3739 102.399 86.1602 100.796C87.9465 99.1923 88.95 97.0176 88.95 94.75V36.0514C88.9494 33.9109 88.0544 31.8484 86.4418 30.2716L59.0479 3.4702C58.1552 2.59665 57.0698 1.89928 55.8608 1.42238C54.6517 0.945489 53.3454 0.699486 52.0248 0.699998ZM6.40005 9.25C6.40005 8.49413 6.73456 7.76922 7.32998 7.23474C7.92541 6.70026 8.73299 6.4 9.57505 6.4H52.0248C52.4654 6.39956 52.9012 6.48144 53.3046 6.64041C53.708 6.79938 54.0701 7.03198 54.3679 7.3234L81.7618 34.1248C82.3001 34.6501 82.5993 35.3376 82.6 36.0514V94.75C82.6 95.5059 82.2655 96.2308 81.6701 96.7653C81.0747 97.2997 80.2671 97.6 79.425 97.6H9.57505C8.73299 97.6 7.92541 97.2997 7.32998 96.7653C6.73456 96.2308 6.40005 95.5059 6.40005 94.75V9.25Z" fill="#003D5B"/>
</svg>
