<svg width="82" height="94" viewBox="0 0 82 94" fill="none" xmlns="http://www.w3.org/2000/svg">
<path d="M37.186 70.0392H32.4186V67.2745C32.4186 64.0971 31.1127 61.0499 28.7881 58.8031C26.4635 56.5563 23.3107 55.2941 20.0233 55.2941C16.7358 55.2941 13.583 56.5563 11.2584 58.8031C8.93384 61.0499 7.62791 64.0971 7.62791 67.2745V70.0392H2.86047C2.10182 70.0392 1.37425 70.3305 0.83781 70.849C0.301369 71.3675 0 72.0707 0 72.8039V91.2353C0 91.9685 0.301369 92.6718 0.83781 93.1902C1.37425 93.7087 2.10182 94 2.86047 94H37.186C37.9447 94 38.6723 93.7087 39.2087 93.1902C39.7451 92.6718 40.0465 91.9685 40.0465 91.2353V72.8039C40.0465 72.0707 39.7451 71.3675 39.2087 70.849C38.6723 70.3305 37.9447 70.0392 37.186 70.0392ZM13.3488 67.2745C13.3488 65.5636 14.052 63.9228 15.3037 62.713C16.5554 61.5032 18.2531 60.8235 20.0233 60.8235C21.7934 60.8235 23.4911 61.5032 24.7428 62.713C25.9945 63.9228 26.6977 65.5636 26.6977 67.2745V70.0392H13.3488V67.2745ZM34.3256 88.4706H5.72093V75.5686H34.3256V88.4706ZM81.1609 26.6149L54.4633 0.810981C53.9273 0.292349 53.2002 0.00064529 52.4419 0H6.67442C4.90425 0 3.20659 0.679655 1.95489 1.88945C0.703196 3.09924 0 4.74007 0 6.45098V47C0 47.7332 0.301369 48.4365 0.83781 48.9549C1.37425 49.4734 2.10182 49.7647 2.86047 49.7647C3.61911 49.7647 4.34668 49.4734 4.88312 48.9549C5.41956 48.4365 5.72093 47.7332 5.72093 47V6.45098C5.72093 6.20657 5.82139 5.97216 6.0002 5.79933C6.17901 5.6265 6.42154 5.52941 6.67442 5.52941H49.5814V28.5686C49.5814 29.3019 49.8828 30.0051 50.4192 30.5236C50.9556 31.0421 51.6832 31.3333 52.4419 31.3333H76.2791V87.549C76.2791 87.7934 76.1786 88.0278 75.9998 88.2007C75.821 88.3735 75.5785 88.4706 75.3256 88.4706H56.2558C55.4972 88.4706 54.7696 88.7619 54.2332 89.2804C53.6967 89.7988 53.3953 90.502 53.3953 91.2353C53.3953 91.9685 53.6967 92.6718 54.2332 93.1902C54.7696 93.7087 55.4972 94 56.2558 94H75.3256C77.0957 94 78.7934 93.3203 80.0451 92.1105C81.2968 90.9008 82 89.2599 82 87.549V28.5686C81.9993 27.8356 81.6975 27.1329 81.1609 26.6149ZM55.3023 9.43686L72.2363 25.8039H55.3023V9.43686Z" fill="#699BF7"/>
</svg>
