<svg width="127" height="114" viewBox="0 0 127 114" fill="none" xmlns="http://www.w3.org/2000/svg">
<path d="M41.2751 68.4C40.433 68.4 39.6255 68.0997 39.03 67.5653C38.4346 67.0308 38.1001 66.3059 38.1001 65.55C38.1001 64.7941 38.4346 64.0692 39.03 63.5348C39.6255 63.0003 40.433 62.7 41.2751 62.7H85.7251C86.5672 62.7 87.3747 63.0003 87.9702 63.5348C88.5656 64.0692 88.9001 64.7941 88.9001 65.55C88.9001 66.3059 88.5656 67.0308 87.9702 67.5653C87.3747 68.0997 86.5672 68.4 85.7251 68.4H41.2751ZM41.2751 85.5C40.433 85.5 39.6255 85.1997 39.03 84.6653C38.4346 84.1308 38.1001 83.4059 38.1001 82.65C38.1001 81.8941 38.4346 81.1692 39.03 80.6348C39.6255 80.1003 40.433 79.8 41.2751 79.8H85.7251C86.5672 79.8 87.3747 80.1003 87.9702 80.6348C88.5656 81.1692 88.9001 81.8941 88.9001 82.65C88.9001 83.4059 88.5656 84.1308 87.9702 84.6653C87.3747 85.1997 86.5672 85.5 85.7251 85.5H41.2751Z" fill="#003D5B"/>
<path fill-rule="evenodd" clip-rule="evenodd" d="M71.0248 5.7H28.575C26.0489 5.7 23.6261 6.6008 21.8399 8.20424C20.0536 9.80767 19.05 11.9824 19.05 14.25V99.75C19.05 102.018 20.0536 104.192 21.8399 105.796C23.6261 107.399 26.0489 108.3 28.575 108.3H98.425C100.951 108.3 103.374 107.399 105.16 105.796C106.947 104.192 107.95 102.018 107.95 99.75V41.0514C107.949 38.9109 107.054 36.8484 105.442 35.2716L78.0479 8.4702C77.1552 7.59665 76.0698 6.89928 74.8608 6.42238C73.6517 5.94549 72.3454 5.69949 71.0248 5.7ZM25.4 14.25C25.4 13.4941 25.7346 12.7692 26.33 12.2347C26.9254 11.7003 27.733 11.4 28.575 11.4H71.0248C71.4654 11.3996 71.9012 11.4814 72.3046 11.6404C72.708 11.7994 73.0701 12.032 73.3679 12.3234L100.762 39.1248C101.3 39.6501 101.599 40.3376 101.6 41.0514V99.75C101.6 100.506 101.266 101.231 100.67 101.765C100.075 102.3 99.2671 102.6 98.425 102.6H28.575C27.733 102.6 26.9254 102.3 26.33 101.765C25.7346 101.231 25.4 100.506 25.4 99.75V14.25Z" fill="#003D5B"/>
<path d="M69.85 39.9H104.775C105.617 39.9 106.425 40.2003 107.02 40.7347C107.615 41.2692 107.95 41.9941 107.95 42.75C107.95 43.5059 107.615 44.2308 107.02 44.7653C106.425 45.2997 105.617 45.6 104.775 45.6H66.675C65.8329 45.6 65.0254 45.2997 64.4299 44.7653C63.8345 44.2308 63.5 43.5059 63.5 42.75V8.55C63.5 7.79413 63.8345 7.06922 64.4299 6.53474C65.0254 6.00026 65.8329 5.7 66.675 5.7C67.5171 5.7 68.3246 6.00026 68.9201 6.53474C69.5155 7.06922 69.85 7.79413 69.85 8.55V39.9Z" fill="#003D5B"/>
</svg>
