<svg width="82" height="94" viewBox="0 0 82 94" fill="none" xmlns="http://www.w3.org/2000/svg">
<g clip-path="url(#clip0_92_13)">
<path d="M2.56415 -2.40282e-06C1.83349 0.1593 1.17546 0.609486 0.706283 1.27103C0.237105 1.93258 -0.0130268 2.76292 7.10687e-05 3.61538V14.4615C7.10687e-05 15.4204 0.33235 16.34 0.923811 17.018C1.51527 17.696 2.31747 18.0769 3.15392 18.0769C3.99037 18.0769 4.79256 17.696 5.38402 17.018C5.97548 16.34 6.30776 15.4204 6.30776 14.4615V7.23077H12.6155C13.4519 7.23077 14.2541 6.84986 14.8456 6.17185C15.437 5.49383 15.7693 4.57424 15.7693 3.61538C15.7693 2.65652 15.437 1.73694 14.8456 1.05892C14.2541 0.380903 13.4519 -2.40282e-06 12.6155 -2.40282e-06H3.15392C3.05515 -0.0053296 2.95622 -0.0053296 2.85746 -2.40282e-06C2.75869 -0.0053296 2.65976 -0.0053296 2.56099 -2.40282e-06H2.56415ZM68.4985 -2.40282e-06C67.662 0.134717 66.9065 0.644825 66.3981 1.4181C65.8898 2.19138 65.6702 3.16448 65.7877 4.12334C65.9053 5.0822 66.3502 5.94827 67.0248 6.53103C67.6994 7.11378 68.5482 7.36549 69.3847 7.23077H75.6924V14.4615C75.6924 15.4204 76.0247 16.34 76.6161 17.018C77.2076 17.696 78.0098 18.0769 78.8462 18.0769C79.6827 18.0769 80.4849 17.696 81.0763 17.018C81.6678 16.34 82.0001 15.4204 82.0001 14.4615V3.61538C82.0001 2.65652 81.6678 1.73694 81.0763 1.05892C80.4849 0.380903 79.6827 -2.40282e-06 78.8462 -2.40282e-06H69.3847C69.2859 -0.0053296 69.187 -0.0053296 69.0882 -2.40282e-06C68.9905 -0.00521158 68.8926 -0.00521158 68.7949 -2.40282e-06C68.6962 -0.00530836 68.5972 -0.00530836 68.4985 -2.40282e-06ZM42.577 8.36238C37.7358 8.56846 30.2549 9.77238 23.1619 15.8173C10.8461 26.3164 9.85584 44.5162 9.85584 44.5162C9.82354 44.991 9.87312 45.4684 10.0018 45.9212C10.1304 46.3741 10.3356 46.7934 10.6056 47.1553C11.151 47.8862 11.9272 48.3388 12.7637 48.4136C13.6001 48.4884 14.4282 48.1792 15.0658 47.5541C15.3815 47.2446 15.641 46.8668 15.8293 46.4423C16.0177 46.0178 16.1312 45.555 16.1635 45.0802C16.1635 45.0802 17.4219 29.8595 27.0065 21.6923C34.6766 15.1557 42.2395 15.5895 46.4215 15.5895C47.258 15.5895 48.0602 15.2086 48.6516 14.5306C49.2431 13.8526 49.5754 12.933 49.5754 11.9742C49.5754 11.0153 49.2431 10.0957 48.6516 9.41769C48.0602 8.73967 47.258 8.35877 46.4215 8.35877C45.5006 8.35877 44.1918 8.29369 42.577 8.36238ZM44.6459 20.2208C40.9023 20.257 36.9253 21.5332 32.9168 24.064C27.0191 27.7915 23.1493 33.6086 21.6828 41.0129C20.8312 45.3152 20.97 49.8778 21.585 54.2308H3.15392C3.05515 54.2254 2.95622 54.2254 2.85746 54.2308C2.75869 54.2254 2.65976 54.2254 2.56099 54.2308C1.72454 54.3209 0.953583 54.7882 0.41772 55.53C-0.118144 56.2717 -0.375017 57.2271 -0.29639 58.186C-0.217764 59.1449 0.189921 60.0286 0.83698 60.6429C1.48404 61.2572 2.31747 61.5517 3.15392 61.4615H78.8462C79.6827 61.4615 80.4849 61.0806 81.0763 60.4026C81.6678 59.7246 82.0001 58.805 82.0001 57.8461C82.0001 56.8873 81.6678 55.9677 81.0763 55.2897C80.4849 54.6117 79.6827 54.2308 78.8462 54.2308H63.077C60.6075 51.4831 58.8918 47.6652 57.2613 43.9486C54.2494 37.083 50.1336 27.6866 39.7196 32.8783C36.3387 34.5667 33.9291 37.5313 32.6235 41.5769C31.2988 45.6804 31.3052 50.2249 32.0305 54.2308H27.9905C27.3282 50.3442 27.1641 46.2733 27.8927 42.5928C28.965 37.1878 31.6363 33.1314 35.9728 30.3909C40.7919 27.3468 45.1379 26.6128 49.0802 28.2434C56.4918 31.3165 61.396 42.018 64.2597 50.3876C64.8968 52.2532 66.7828 53.1425 68.4007 52.4231C70.0218 51.6928 70.8134 49.5344 70.1732 47.6761C66.8332 37.9145 60.7842 25.4559 51.1523 21.4645C49.0666 20.6044 46.8622 20.1806 44.6459 20.2208ZM45.1379 38.5255C47.5632 38.446 48.9352 40.937 51.6443 47.1121C52.6283 49.3608 53.7416 51.8555 55.0946 54.2308H49.4745C47.3992 50.3732 47.3109 47.2928 47.3078 47C47.3149 46.5324 47.2414 46.0677 47.0915 45.6327C46.9416 45.1977 46.7184 44.8009 46.4344 44.4651C46.1505 44.1292 45.8116 43.8608 45.437 43.6754C45.0624 43.49 44.6596 43.3912 44.2517 43.3846C42.4887 43.2508 41.0442 44.8922 41.0001 46.8879C40.9969 47.1663 41.0253 50.1815 42.4792 54.2308H38.5369C37.6412 50.6118 37.6318 46.8771 38.5369 44.0607C39.2528 41.8481 40.4608 40.3368 42.2805 39.433C43.4002 38.8726 44.3305 38.5508 45.1379 38.5255ZM24.25 65.0769C25.2718 67.7921 26.4577 70.2035 27.6971 72.1956C32.7465 80.2941 37.5592 84.6904 45.9295 88.8011C46.3058 88.9745 46.7104 89.0522 47.1154 89.0288C48.3359 89.0288 49.5596 88.2479 50.0705 86.8813C50.3962 85.9976 50.4027 85.0019 50.0887 84.1127C49.7748 83.2234 49.166 82.5133 48.3958 82.1379C41.0474 78.5225 37.2249 75.0735 32.8221 68.0126C32.2449 67.0717 31.7183 66.0913 31.2452 65.0769H24.2437H24.25ZM35.976 65.0769C41.8768 76.1111 50.7865 82.3621 61.0112 82.3621C61.2604 82.3621 61.5474 82.3693 61.7997 82.3621C62.6128 82.3082 63.3763 81.8961 63.9306 81.2121C64.4849 80.528 64.7871 79.6248 64.7741 78.6912C64.7611 77.7577 64.4338 76.866 63.8607 76.2026C63.2876 75.5392 62.513 75.1553 61.6988 75.1313H61.109C54.3755 75.1313 48.2413 71.5376 43.6651 65.0769H35.976ZM49.3798 65.0769C52.048 67.7704 55.5866 70.3662 60.2228 72.6475C60.5921 72.8533 60.995 72.9678 61.4055 72.9838C62.6291 72.9838 63.8465 72.2101 64.3606 70.8398C64.6872 69.9557 64.6943 68.9591 64.3803 68.069C64.0663 67.1789 63.4568 66.4682 62.6859 66.0928C62.0457 65.7747 61.4938 65.4023 60.9103 65.0769H49.3798ZM2.85746 75.811C2.72408 75.8386 2.5924 75.876 2.46323 75.9231C1.75119 76.106 1.11653 76.5663 0.667384 77.2256C0.218239 77.8848 -0.0175945 78.7022 7.10687e-05 79.5385V90.3846C7.10687e-05 91.3435 0.33235 92.2631 0.923811 92.9411C1.51527 93.6191 2.31747 94 3.15392 94H12.6155C13.4519 94 14.2541 93.6191 14.8456 92.9411C15.437 92.2631 15.7693 91.3435 15.7693 90.3846C15.7693 89.4257 15.437 88.5062 14.8456 87.8281C14.2541 87.1501 13.4519 86.7692 12.6155 86.7692H6.30776V79.5385C6.32369 79.0243 6.24372 78.5122 6.0732 78.0364C5.90268 77.5605 5.64553 77.1319 5.31894 76.7791C4.99235 76.4262 4.60384 76.1574 4.17936 75.9904C3.75488 75.8235 3.30421 75.7623 2.85746 75.811ZM78.5498 75.811C78.4164 75.8386 78.2847 75.876 78.1555 75.9231C77.4435 76.106 76.8088 76.5663 76.3597 77.2256C75.9106 77.8848 75.6747 78.7022 75.6924 79.5385V86.7692H69.3847C68.5482 86.7692 67.746 87.1501 67.1546 87.8281C66.5631 88.5062 66.2308 89.4257 66.2308 90.3846C66.2308 91.3435 66.5631 92.2631 67.1546 92.9411C67.746 93.6191 68.5482 94 69.3847 94H78.8462C79.6827 94 80.4849 93.6191 81.0763 92.9411C81.6678 92.2631 82.0001 91.3435 82.0001 90.3846V79.5385C82.016 79.0243 81.936 78.5122 81.7655 78.0364C81.595 77.5605 81.3378 77.1319 81.0113 76.7791C80.6847 76.4262 80.2962 76.1574 79.8717 75.9904C79.4472 75.8235 78.9965 75.7623 78.5498 75.811Z" fill="#699BF7"/>
</g>
<defs>
<clipPath id="clip0_92_13">
<rect width="82" height="94" fill="white"/>
</clipPath>
</defs>
</svg>
