<svg width="94" height="115" viewBox="0 0 94 115" fill="none" xmlns="http://www.w3.org/2000/svg">
<path d="M1.0312 43.1077C0.656198 42.7757 0.427031 42.3586 0.343698 41.8567C0.263837 41.3548 0.385364 40.8297 0.708281 40.2814C6.1562 32.2232 12.8749 25.9084 20.8645 21.3368C28.8506 16.7614 37.3732 14.4737 46.4322 14.4737C55.585 14.4737 64.2187 16.6707 72.3333 21.0646C80.4513 25.4547 87.2117 31.7638 92.6145 39.9918C93.0867 40.6366 93.2326 41.2409 93.052 41.8046C92.868 42.3722 92.5486 42.822 92.0937 43.154C91.6423 43.49 91.1527 43.6367 90.6249 43.5942C90.1006 43.5556 89.6423 43.2158 89.2499 42.5749C84.3402 34.899 78.0989 29.0397 70.526 24.9972C62.9565 20.9507 54.9253 18.9275 46.4322 18.9275C38.0121 18.9275 30.0781 20.9874 22.6302 25.1072C15.1857 29.2232 8.99995 35.0457 4.07287 42.5749C3.62148 43.2969 3.11453 43.6676 2.55203 43.6869C1.98953 43.71 1.48606 43.517 1.0312 43.1077ZM61.2395 114.722C52.4826 112.212 45.2725 107.27 39.6093 99.895C33.9496 92.5203 31.1197 83.5065 31.1197 72.8537C31.1197 68.174 32.6475 64.2685 35.7031 61.1372C38.7586 58.0019 42.4045 56.4343 46.6406 56.4343C50.8767 56.4343 54.4843 58.0019 57.4635 61.1372C60.4496 64.2685 61.9426 68.174 61.9426 72.8537C61.9426 76.2283 63.085 79.0662 65.3697 81.3675C67.6545 83.6648 70.3489 84.8135 73.4531 84.8135C76.5572 84.8135 79.2187 83.6552 81.4374 81.3385C83.6527 79.0141 84.7604 76.1858 84.7604 72.8537C84.7604 61.4673 80.993 51.8975 73.4583 44.1444C65.9305 36.3913 56.9374 32.5147 46.4791 32.5147C36.0243 32.5147 27.0572 36.4029 19.5781 44.1792C12.0989 51.9554 8.35932 61.502 8.35932 72.819C8.35932 75.1742 8.60411 78.1164 9.0937 81.6455C9.58328 85.1745 10.5329 89.2576 11.9427 93.8948C12.1371 94.5396 12.1336 95.1072 11.9322 95.5976C11.7309 96.0879 11.3489 96.4779 10.7864 96.7675C10.2239 97.0571 9.6996 97.0667 9.21349 96.7965C8.72738 96.5262 8.38884 96.086 8.19786 95.476C6.82981 91.4874 5.84717 87.6726 5.24995 84.0316C4.65273 80.3906 4.35411 76.6646 4.35411 72.8537C4.35411 60.1738 8.493 49.5422 16.7708 40.959C25.0486 32.3796 34.9357 28.0899 46.4322 28.0899C58.0156 28.0899 67.967 32.3796 76.2864 40.959C84.6058 49.5384 88.7656 60.17 88.7656 72.8537C88.7656 77.5218 87.2829 81.4196 84.3176 84.5471C81.3558 87.6746 77.7447 89.2383 73.4843 89.2383C69.2551 89.2383 65.6076 87.6746 62.5416 84.5471C59.4722 81.4196 57.9374 77.5218 57.9374 72.8537C57.9374 69.5216 56.8263 66.6952 54.6041 64.3747C52.3749 62.0542 49.717 60.8939 46.6301 60.8939C43.4878 60.8939 40.7847 62.0426 38.5208 64.34C36.2534 66.6412 35.1197 69.4791 35.1197 72.8537C35.1197 82.4408 37.6822 90.4449 42.8072 96.866C47.9322 103.291 54.4444 107.758 62.3437 110.268C62.9617 110.488 63.3923 110.855 63.6354 111.368C63.8784 111.878 63.9131 112.426 63.7395 113.013C63.5659 113.527 63.2847 113.99 62.8958 114.403C62.5104 114.809 61.96 114.915 61.2447 114.722H61.2395ZM17.1562 13.0721C16.7986 13.3308 16.3559 13.3771 15.8281 13.2111C15.3003 13.0451 14.9288 12.686 14.7135 12.1339C14.5017 11.5856 14.4322 11.0528 14.5052 10.5354C14.5746 10.0218 14.8576 9.59712 15.3541 9.2612C20.1493 6.28815 25.1944 4.0487 30.4895 2.54287C35.7847 1.03703 41.1666 0.284119 46.6354 0.284119C52.1041 0.284119 57.4444 1.03317 62.6562 2.53129C67.8645 4.02554 72.9044 6.17231 77.776 8.97162C78.4913 9.3809 78.8958 9.8674 78.9895 10.4311C79.0868 10.9948 79.0399 11.5412 78.8489 12.0702C78.6545 12.5953 78.3038 12.9775 77.7968 13.2169C77.2899 13.4524 76.769 13.4042 76.2343 13.0721C71.6996 10.2419 66.9305 8.14534 61.927 6.78237C56.927 5.4194 51.8142 4.73791 46.5885 4.73791C41.4496 4.73791 36.4166 5.4638 31.4895 6.91558C26.5624 8.36736 21.7829 10.4215 17.151 13.0779L17.1562 13.0721ZM33.526 112.909C28.6024 107.075 24.7569 101.026 21.9895 94.7636C19.2222 88.5009 17.8385 81.1937 17.8385 72.8421C17.8385 64.2087 20.6545 56.9498 26.2864 51.0655C31.9184 45.1811 38.7031 42.239 46.6406 42.239C54.5781 42.239 61.3697 45.1811 67.0156 51.0655C72.6649 56.9498 75.4895 64.2106 75.4895 72.8479C75.4895 73.5159 75.3072 74.0545 74.9426 74.4638C74.5746 74.8731 74.0885 75.0777 73.4843 75.0777C72.9913 75.0777 72.5347 74.8731 72.1145 74.4638C71.6944 74.0545 71.4861 73.5159 71.4895 72.8479C71.4895 65.4616 69.0295 59.2568 64.1093 54.2335C59.1926 49.2102 53.368 46.6985 46.6354 46.6985C39.9062 46.6985 34.0902 49.2083 29.1874 54.2277C24.2916 59.2549 21.8437 65.4597 21.8437 72.8421C21.8437 80.8115 23.0937 87.5433 25.5937 93.0377C28.0902 98.5282 31.6822 104.092 36.3697 109.729C36.8906 110.32 37.1006 110.909 36.9999 111.496C36.8993 112.083 36.6892 112.554 36.3697 112.909C35.9809 113.341 35.5225 113.575 34.9947 113.61C34.467 113.648 33.9774 113.417 33.526 112.915V112.909ZM72.4479 102.843C64.9201 102.843 58.3645 99.9993 52.7812 94.3118C47.1944 88.6283 44.401 81.4736 44.401 72.8479C44.401 72.2533 44.5833 71.7321 44.9479 71.2842C45.3124 70.8401 45.7916 70.6181 46.3854 70.6181C46.9791 70.6181 47.4652 70.8421 47.8437 71.29C48.2187 71.734 48.4062 72.2533 48.4062 72.8479C48.4062 80.3153 50.802 86.439 55.5937 91.2191C60.3784 95.9991 65.9965 98.3892 72.4479 98.3892C73.302 98.3892 74.2048 98.3409 75.1562 98.2444C76.1076 98.1478 77.0746 98.003 78.0572 97.81C78.5711 97.6903 79.0104 97.7733 79.3749 98.059C79.7361 98.3448 80.0034 98.8177 80.177 99.478C80.3506 100.065 80.2551 100.58 79.8906 101.024C79.5225 101.465 79.0572 101.781 78.4947 101.974C77.5329 102.233 76.4999 102.443 75.3958 102.605C74.2916 102.76 73.309 102.837 72.4479 102.837V102.843Z" fill="#003D5B"/>
</svg>
