<svg width="96" height="96" viewBox="0 0 96 96" fill="none" xmlns="http://www.w3.org/2000/svg">
<path d="M90.75 12C91.4687 12 92.1406 12.1406 92.7656 12.4219C93.3906 12.7031 93.9531 13.0781 94.4531 13.5469C94.9531 14.0156 95.3281 14.5625 95.5781 15.1875C95.8281 15.8125 95.9687 16.5 96 17.25V72.75C96 73.4687 95.8594 74.1406 95.5781 74.7656C95.2969 75.3906 94.9219 75.9531 94.4531 76.4531C93.9844 76.9531 93.4375 77.3281 92.8125 77.5781C92.1875 77.8281 91.5 77.9687 90.75 78H5.25C4.53125 78 3.85937 77.8594 3.23438 77.5781C2.60938 77.2969 2.04688 76.9219 1.54688 76.4531C1.04687 75.9844 0.671875 75.4375 0.421875 74.8125C0.171875 74.1875 0.03125 73.5 0 72.75V17.25C0 16.5313 0.140625 15.8594 0.421875 15.2344C0.703125 14.6094 1.07812 14.0469 1.54688 13.5469C2.01562 13.0469 2.5625 12.6719 3.1875 12.4219C3.8125 12.1719 4.5 12.0313 5.25 12H90.75ZM90 18H30V24.5156C31.0312 24.1719 32.0313 24 33 24C34.25 24 35.4219 24.2344 36.5156 24.7031C37.6094 25.1719 38.5625 25.8125 39.375 26.625C40.1875 27.4375 40.8281 28.3906 41.2969 29.4844C41.7656 30.5781 42 31.75 42 33C42 33.9687 41.8281 34.9688 41.4844 36H90V18ZM18 33C18 33.8125 18.2969 34.5156 18.8906 35.1094C19.4844 35.7031 20.1875 36 21 36H24V33C24 32.1875 23.7031 31.4844 23.1094 30.8906C22.5156 30.2969 21.8125 30 21 30C20.1875 30 19.4844 30.2969 18.8906 30.8906C18.2969 31.4844 18 32.1875 18 33ZM33 36C33.8125 36 34.5156 35.7031 35.1094 35.1094C35.7031 34.5156 36 33.8125 36 33C36 32.1875 35.7031 31.4844 35.1094 30.8906C34.5156 30.2969 33.8125 30 33 30C32.1875 30 31.4844 30.2969 30.8906 30.8906C30.2969 31.4844 30 32.1875 30 33V36H33ZM6 18V36H12.5156C12.1719 34.9688 12 33.9687 12 33C12 31.75 12.2344 30.5781 12.7031 29.4844C13.1719 28.3906 13.8125 27.4375 14.625 26.625C15.4375 25.8125 16.3906 25.1719 17.4844 24.7031C18.5781 24.2344 19.75 24 21 24C21.9687 24 22.9688 24.1719 24 24.5156V18H6ZM6 72H24V46.2656L17.1094 53.1094L12.8906 48.8906L19.7344 42H6V72ZM90 72V42H34.2656L41.1094 48.8906L36.8906 53.1094L30 46.2656V72H90Z" fill="#699BF7"/>
</svg>
