<svg width="23" height="19" viewBox="0 0 23 19" fill="none" xmlns="http://www.w3.org/2000/svg">
<path d="M11.5 7.23781C10.9584 7.23798 10.4291 7.3708 9.97889 7.61947C9.52869 7.86815 9.17785 8.22151 8.97075 8.63489C8.76364 9.04826 8.70955 9.50308 8.81533 9.94185C8.92111 10.3806 9.182 10.7836 9.56502 11.0999C9.94804 11.4162 10.436 11.6316 10.9672 11.7188C11.4983 11.806 12.0489 11.7612 12.5492 11.5899C13.0495 11.4187 13.4772 11.1287 13.778 10.7567C14.0789 10.3847 14.2395 9.94738 14.2395 9.5C14.2389 8.90002 13.9501 8.32476 13.4364 7.90059C12.9228 7.47642 12.2263 7.23804 11.5 7.23781ZM17.9025 5.49897C17.7631 5.20712 17.5526 4.94204 17.284 4.72019C17.0155 4.49833 16.6946 4.32443 16.3413 4.20926C15.2632 3.85768 12.6962 3.93656 11.5 3.93656C10.3038 3.93656 7.7394 3.85471 6.65819 4.20926C6.3049 4.32443 5.98401 4.49833 5.71545 4.72019C5.44689 4.94204 5.23637 5.20712 5.09696 5.49897C4.67188 6.3896 4.76685 8.51225 4.76685 9.49958C4.76685 10.4869 4.67188 12.607 5.09902 13.5006C5.23843 13.7925 5.44894 14.0575 5.7175 14.2794C5.98607 14.5012 6.30695 14.6751 6.66025 14.7903C7.73837 15.1419 10.3053 15.063 11.5021 15.063C12.6988 15.063 15.2621 15.1449 16.3433 14.7903C16.6966 14.6751 17.0175 14.5012 17.2861 14.2794C17.5547 14.0575 17.7652 13.7925 17.9046 13.5006C18.3333 12.61 18.2347 10.4873 18.2347 9.5C18.2347 8.51268 18.3333 6.39299 17.9046 5.4994L17.9025 5.49897ZM11.5 12.9777C10.6674 12.9777 9.85345 12.7737 9.16115 12.3916C8.46885 12.0095 7.92926 11.4663 7.61063 10.8308C7.292 10.1954 7.20863 9.49614 7.37107 8.82154C7.53351 8.14693 7.93445 7.52727 8.52321 7.04091C9.11196 6.55455 9.86208 6.22333 10.6787 6.08914C11.4953 5.95496 12.3418 6.02383 13.111 6.28704C13.8803 6.55026 14.5378 6.996 15.0003 7.5679C15.4629 8.13981 15.7098 8.81218 15.7098 9.5C15.7105 9.95685 15.6021 10.4093 15.3907 10.8315C15.1794 11.2537 14.8694 11.6373 14.4783 11.9603C14.0872 12.2834 13.6229 12.5395 13.1118 12.7141C12.6008 12.8887 12.053 12.9782 11.5 12.9777ZM15.8833 6.68817C15.689 6.68825 15.4989 6.64072 15.3373 6.55157C15.1756 6.46243 15.0496 6.33568 14.9751 6.18736C14.9007 6.03904 14.8812 5.87582 14.919 5.71833C14.9569 5.56084 15.0504 5.41616 15.1878 5.30259C15.3252 5.18902 15.5003 5.11167 15.6909 5.08032C15.8816 5.04896 16.0792 5.06501 16.2588 5.12644C16.4383 5.18786 16.5918 5.29191 16.6998 5.42541C16.8078 5.5589 16.8655 5.71586 16.8655 5.87643C16.866 5.98305 16.8411 6.08872 16.7921 6.18736C16.7431 6.28601 16.671 6.37569 16.5799 6.45126C16.4888 6.52683 16.3806 6.58681 16.2614 6.62776C16.1423 6.66871 16.0145 6.68981 15.8854 6.68987L15.8833 6.68817ZM20.5357 0H2.46429C1.81072 0 1.18392 0.214476 0.721773 0.596247C0.259629 0.978017 0 1.49581 0 2.03571L0 16.9643C0 17.5042 0.259629 18.022 0.721773 18.4038C1.18392 18.7855 1.81072 19 2.46429 19H20.5357C21.1893 19 21.8161 18.7855 22.2782 18.4038C22.7404 18.022 23 17.5042 23 16.9643V2.03571C23 1.49581 22.7404 0.978017 22.2782 0.596247C21.8161 0.214476 21.1893 0 20.5357 0ZM19.6568 12.2991C19.5906 13.3861 19.2902 14.3492 18.3297 15.1406C17.3691 15.932 16.2042 16.1852 14.8899 16.2369C13.5341 16.3001 9.46902 16.3001 8.11315 16.2369C6.79732 16.1822 5.63551 15.9337 4.67342 15.1406C3.71132 14.3475 3.40893 13.384 3.34629 12.2991C3.2698 11.1786 3.2698 7.82011 3.34629 6.70089C3.41252 5.61391 3.70926 4.65076 4.67342 3.85937C5.63757 3.06799 6.80246 2.81777 8.11315 2.76603C9.46902 2.70283 13.5341 2.70283 14.8899 2.76603C16.2058 2.82074 17.3712 3.06926 18.3297 3.86234C19.2882 4.65542 19.5942 5.619 19.6568 6.70598C19.7333 7.82223 19.7333 11.1778 19.6568 12.2991Z" fill="black"/>
</svg>
