<svg width="23" height="19" viewBox="0 0 23 19" fill="none" xmlns="http://www.w3.org/2000/svg">
<path d="M21.3571 0H1.63772C0.734152 0 0 0.614955 0 1.36987V17.6301C0 18.385 0.734152 19 1.63772 19H21.3571C22.2607 19 23 18.385 23 17.6301V1.36987C23 0.614955 22.2607 0 21.3571 0ZM6.95134 16.2857H3.54241V7.2183H6.95647V16.2857H6.95134ZM5.24687 5.97991C4.15335 5.97991 3.27031 5.24621 3.27031 4.3471C3.27031 3.44799 4.15335 2.71429 5.24687 2.71429C6.33527 2.71429 7.22344 3.44799 7.22344 4.3471C7.22344 5.25045 6.3404 5.97991 5.24687 5.97991ZM19.7297 16.2857H16.3208V11.875C16.3208 10.8232 16.2951 9.47031 14.5496 9.47031C12.7732 9.47031 12.5011 10.6154 12.5011 11.7987V16.2857H9.09219V7.2183H12.3625V8.4567H12.4087C12.8656 7.7442 13.9797 6.99353 15.6379 6.99353C19.0879 6.99353 19.7297 8.87232 19.7297 11.3152V16.2857Z" fill="black"/>
</svg>
