<svg width="78" height="73" viewBox="0 0 78 73" fill="none" xmlns="http://www.w3.org/2000/svg">
<path d="M37 59.0681H9C6.87827 59.0681 4.84344 58.1967 3.34315 56.6454C1.84285 55.0942 1 52.9903 1 50.7965V9.4383C1 7.24452 1.84285 5.1406 3.34315 3.58936C4.84344 2.03813 6.87827 1.16666 9 1.16666H65C67.1217 1.16666 69.1566 2.03813 70.6569 3.58936C72.1571 5.1406 73 7.24452 73 9.4383V28.0495M65 54.9323V54.9737M73.484 63.7044C75.1626 61.9693 76.3058 59.7585 76.7692 57.3516C77.2325 54.9447 76.995 52.4498 76.0869 50.1824C75.1788 47.915 73.6407 45.977 71.6672 44.6135C69.6938 43.25 67.3735 42.5222 65 42.5222C62.6265 42.5222 60.3062 43.25 58.3328 44.6135C56.3593 45.977 54.8212 47.915 53.9131 50.1824C53.005 52.4498 52.7675 54.9447 53.2308 57.3516C53.6942 59.7585 54.8374 61.9693 56.516 63.7044C58.188 65.4373 61.016 68.0263 65 71.4756C69.204 67.7947 72.036 65.2057 73.484 63.7044Z" stroke="#699BF7" stroke-width="2" stroke-linecap="round" stroke-linejoin="round"/>
<path d="M1 9.43829L37 34.2532L73 9.43829" stroke="#699BF7" stroke-width="2" stroke-linecap="round" stroke-linejoin="round"/>
</svg>
