<svg width="82" height="94" viewBox="0 0 82 94" fill="none" xmlns="http://www.w3.org/2000/svg">
<path d="M79.4416 21.6089L43.3616 0.640953C42.6375 0.220416 41.8254 0 41 0C40.1746 0 39.3625 0.220416 38.6384 0.640953L2.5584 21.6089C1.7844 22.0584 1.13852 22.7206 0.688411 23.5261C0.238303 24.3316 0.000531066 25.2507 0 26.1872V67.8097C0.000531066 68.7463 0.238303 69.6654 0.688411 70.4709C1.13852 71.2763 1.7844 71.9385 2.5584 72.388L38.6384 93.356C39.3619 93.7785 40.1742 94 41 94C41.8258 94 42.6381 93.7785 43.3616 93.356L79.4416 72.388C80.2156 71.9385 80.8615 71.2763 81.3116 70.4709C81.7617 69.6654 81.9995 68.7463 82 67.8097V26.1872C81.9995 25.2507 81.7617 24.3316 81.3116 23.5261C80.8615 22.7206 80.2156 22.0584 79.4416 21.6089ZM40.2128 3.69606C40.4534 3.55352 40.7244 3.47869 41 3.47869C41.2756 3.47869 41.5466 3.55352 41.7872 3.69606L77.3547 24.3681L61.705 33.4594C61.6307 33.3941 61.5511 33.3358 61.4672 33.2853L25.3872 12.3174L40.2128 3.69606ZM41 45.4753L4.6453 24.3681L21.9596 14.3019L58.3143 35.4265L41 45.4753ZM4.1328 69.3242C3.87521 69.1746 3.66018 68.9544 3.51017 68.6864C3.36015 68.4185 3.28067 68.1127 3.28 67.801V27.5407L39.36 48.4999V89.8048L4.1328 69.3242ZM77.8672 69.3242L42.64 89.7786V48.4999L59.04 38.9734V57.4433C59.04 57.905 59.2128 58.3477 59.5203 58.6742C59.8279 59.0007 60.245 59.1841 60.68 59.1841C61.115 59.1841 61.5321 59.0007 61.8397 58.6742C62.1472 58.3477 62.32 57.905 62.32 57.4433V37.0672L78.72 27.5407V67.8097C78.7193 68.1214 78.6398 68.4272 78.4898 68.6951C78.3398 68.9631 78.1248 69.1833 77.8672 69.3329V69.3242Z" fill="#699BF7"/>
</svg>
