<svg width="96" height="96" viewBox="0 0 96 96" fill="none" xmlns="http://www.w3.org/2000/svg">
<g clip-path="url(#clip0_98_9)">
<path d="M39.0677 78.72C38.066 78.72 37.3982 79.68 37.3982 81.28C37.3982 82.56 38.066 83.84 39.4017 83.84C40.4034 83.84 41.0712 82.88 41.0712 81.28C41.0712 80 40.4034 78.72 39.0677 78.72ZM12.3547 78.72C12.3547 79.04 12.0208 79.68 12.0208 80L11.6869 81.6H13.3564L13.0225 80C12.6886 79.68 12.6886 79.36 12.3547 78.72ZM6.01036 78.72H5.34253V80.96H6.01036C7.01209 80.96 7.34601 80.64 7.34601 79.68C7.34601 78.72 7.01209 78.72 6.01036 78.72ZM31.7217 78.72H31.0538V80.96H31.7217C32.7234 80.96 33.0573 80.64 33.0573 79.68C33.0573 78.72 32.3895 78.72 31.7217 78.72ZM46.4138 78.72H45.746V80.64H46.4138C47.4156 80.64 47.7495 80.32 47.7495 79.68C47.7495 79.04 47.0817 78.72 46.4138 78.72ZM96.5008 23.36L47.7495 0.319998C47.4711 0.152242 47.1586 0.0433156 46.8328 0.000487307C46.507 -0.042341 46.1755 -0.0180859 45.8602 0.0716339C45.545 0.161354 45.2534 0.314474 45.0048 0.520778C44.7562 0.727081 44.5564 0.981821 44.4187 1.268L44.4145 1.28V1.6L43.4128 3.2L37.7363 14.4H58.1717C61.0851 14.4 63.4476 16.664 63.4476 19.456V19.524V93.12C63.7815 92.8 64.1154 92.48 64.1154 92.16L97.5067 26.56C97.6714 26.2906 97.7766 25.9918 97.8157 25.6818C97.8549 25.3719 97.8273 25.0576 97.7346 24.7584C97.6418 24.4591 97.486 24.1813 97.2766 23.9421C97.0672 23.703 96.8089 23.5076 96.5175 23.368L96.505 23.364L96.5008 23.36ZM38.3999 58.56C36.1575 57.8237 33.818 57.3941 31.4504 57.284L31.3877 57.28V66.56C33.0953 65.8236 34.6093 64.7306 35.819 63.3609C37.0287 61.9912 37.9034 60.3796 38.3791 58.644L38.3999 58.56ZM39.4017 38.72C36.9561 39.577 34.3715 40.0117 31.7676 40.004L31.3711 40H31.3919V45.12H40.4076C40.3788 42.8946 40.0262 40.684 39.3599 38.552L39.4058 38.72H39.4017ZM31.3877 28.48V37.12L31.7008 37.124C34.1175 37.124 36.4215 36.652 38.5126 35.8L38.3999 35.84C37.9653 34.1635 37.1044 32.6161 35.894 31.3361C34.6835 30.056 33.1612 29.083 31.4629 28.504L31.3877 28.48Z" fill="#699BF7"/>
<path d="M42.7408 56.64C43.9513 57.276 44.8862 58.276 45.3996 59.484L45.4122 59.52C48.0909 56.5875 49.7266 52.9144 50.0828 49.032L50.0869 48.96H43.7426C43.9106 51.6106 43.5552 54.2678 42.6949 56.792L42.7408 56.644V56.64ZM16.3617 62.08C17.4135 62.976 18.624 63.728 19.9471 64.288L20.0348 64.32C19.1123 63.12 18.3235 61.748 17.7391 60.28L17.6974 60.16C17.0761 60.6568 16.6157 61.3132 16.3701 62.052L16.3617 62.08ZM43.0748 31.68C41.8226 30.74 40.4076 29.792 38.9384 28.916L38.7339 28.8C39.9235 30.18 40.9335 31.764 41.689 33.476L41.7391 33.6C42.4069 33.6 43.0748 32.64 43.0748 31.68ZM39.4017 64.32C40.6915 63.732 41.7934 62.98 42.7408 62.08C42.6855 61.6862 42.5377 61.3095 42.3085 60.9783C42.0793 60.6472 41.7748 60.3701 41.4177 60.168L41.4052 60.16C41.0629 61.756 40.3617 63.156 39.385 64.34L39.4017 64.32ZM44.0765 45.44H50.4208C49.9828 41.487 48.4702 37.7134 46.0341 34.496L46.08 34.56C45.4453 35.8007 44.4025 36.8071 43.1123 37.424L43.0748 37.44C43.4087 40 43.7426 42.56 44.0765 45.44ZM40.4035 48.96H31.3878V53.76C34.1917 53.8279 36.9588 54.3878 39.552 55.412L39.4017 55.36C40.0422 53.2867 40.3793 51.1382 40.4035 48.976V48.96ZM19.7008 29.76C18.4727 30.2081 17.3378 30.8623 16.3492 31.692L16.3617 31.68C16.3864 32.047 16.4874 32.4055 16.6587 32.7345C16.83 33.0635 17.0682 33.3564 17.3593 33.596L17.3635 33.6C17.8977 32.116 18.6949 30.836 19.7092 29.748L19.7008 29.76ZM16.3617 37.12C15.3243 36.4398 14.426 35.5829 13.7113 34.592L13.6904 34.56C10.9956 37.7316 9.36717 41.6115 9.0198 45.688L9.01562 45.76H15.0261C15.0928 42.7522 15.5628 39.765 16.4243 36.872L16.3617 37.12ZM27.7148 65.92V57.28C25.3578 57.5274 23.029 57.9785 20.7568 58.628L21.0365 58.56C21.4486 60.1981 22.2627 61.7183 23.4112 62.9942C24.5596 64.2702 26.0093 65.265 27.6396 65.896L27.7148 65.92Z" fill="#699BF7"/>
<path d="M59.4365 20.48V20.384C59.4364 19.77 59.1979 19.178 58.7674 18.7233C58.3369 18.2685 57.7452 17.9836 57.1075 17.924H2.66714C2.60035 17.916 2.52105 17.916 2.44174 17.916C2.0995 17.9168 1.76118 17.9859 1.44838 18.119C1.13558 18.2521 0.855164 18.4463 0.625022 18.689C0.39488 18.9318 0.220065 19.2179 0.111732 19.529C0.00339935 19.8401 -0.0360737 20.1694 -0.00416825 20.496V20.488V93.484C-0.00416825 94.88 1.17705 96.008 2.62957 96.008H56.761C57.4521 95.9617 58.1027 95.6781 58.5933 95.2094C59.0839 94.7407 59.3818 94.1182 59.4324 93.456V93.448L59.4365 20.48ZM5.67653 44.8C6.18025 39.3773 8.6515 34.2954 12.6604 30.4381C16.6694 26.5809 21.9624 24.1924 27.6188 23.688L27.7148 23.68V23.36H31.3878V23.68C34.5228 23.9164 37.5786 24.7422 40.3805 26.1103C43.1825 27.4784 45.6759 29.362 47.7182 31.6536C49.7606 33.9452 51.312 36.5998 52.2838 39.466C53.2557 42.3321 53.6289 45.3536 53.3823 48.358C53.1356 51.3624 52.2739 54.2908 50.8463 56.976C49.4187 59.6612 47.4532 62.0507 45.062 64.008C42.6708 65.9653 39.9007 67.452 36.91 68.3833C33.9192 69.3147 30.7663 69.6724 27.6313 69.436L27.7148 69.44C15.289 68.388 5.62227 58.464 5.62227 46.372C5.62227 45.82 5.64314 45.268 5.6807 44.728L5.67653 44.8ZM6.01044 82.24H5.34261V84.8H3.67305V77.44H6.01044C6.85029 77.3508 7.69301 77.5822 8.35618 78.084L8.34783 78.08C9.01566 78.4 9.01566 79.04 9.01566 79.68C9.00584 80.2739 8.76809 80.8435 8.34783 81.28C8.06371 81.5829 7.71611 81.825 7.32773 81.9904C6.93935 82.1558 6.51893 82.2409 6.09392 82.24H6.00627H6.01044ZM14.0244 84.8L13.3565 82.88H11.353L10.6852 84.8H9.01566L11.353 77.44H13.6904L16.0278 84.8H14.0244ZM18.6991 84.8C18.0047 84.8516 17.3078 84.7376 16.6706 84.468L16.6957 84.48L17.0296 83.2C17.6651 83.4648 18.3591 83.5747 19.0497 83.52H19.033C19.7009 83.52 20.0348 83.2 20.0348 82.88C20.0348 82.56 19.7009 82.24 18.6991 81.92C17.6974 81.28 16.6957 80.64 16.6957 79.68C16.6957 78.4 17.6974 77.44 19.7009 77.44C20.3953 77.3884 21.0922 77.5024 21.7294 77.772L21.7044 77.76L21.3704 79.04C20.867 78.7456 20.2709 78.6322 19.6884 78.72H19.7009C19.033 78.72 18.6991 79.04 18.6991 79.36C18.6991 79.68 19.0331 80 20.0348 80.32C21.1617 80.52 22.0091 81.44 22.0383 82.556C22.0383 83.836 21.0365 84.8 18.6991 84.8ZM25.0435 84.8C24.3491 84.8516 23.6521 84.7376 23.015 84.468L23.04 84.48V83.2C23.6755 83.4648 24.3696 83.5747 25.0602 83.52H25.0435C25.7113 83.52 26.3791 83.2 26.3791 82.88C26.3791 82.56 26.0452 82.24 25.0435 81.92C24.4947 81.8721 23.9845 81.6293 23.613 81.2392C23.2415 80.8492 23.0356 80.3401 23.0358 79.812L23.04 79.672V79.68C23.04 78.4 24.0417 77.44 26.0452 77.44C26.7396 77.3884 27.4366 77.5024 28.0737 77.772L28.0487 77.76L27.7148 79.04C27.2114 78.7456 26.6153 78.6322 26.0327 78.72H26.0452C25.3774 78.72 25.0435 79.04 25.0435 79.36C25.0435 79.68 25.3774 80 26.3791 80.32C27.5061 80.52 28.3534 81.44 28.3826 82.556C28.2423 83.2769 27.8117 83.92 27.1837 84.3391C26.5558 84.7582 25.781 84.9238 25.0268 84.8H25.0435ZM34.0591 81.6C33.7755 81.9161 33.4009 82.145 32.9822 82.2581C32.5634 82.3713 32.1192 82.3636 31.7051 82.236L31.7217 82.24H31.0539V84.8H29.3844V77.44H31.7217C32.5616 77.3508 33.4043 77.5822 34.0675 78.084L34.0591 78.08C34.727 78.4 34.727 79.04 34.727 79.68C34.6518 80.4 34.4139 81.052 34.0466 81.62L34.0591 81.6ZM42.7409 80.96C42.8088 81.4255 42.7745 81.8995 42.6402 82.3516C42.5059 82.8037 42.2746 83.224 41.9611 83.5855C41.6475 83.947 41.2587 84.2417 40.8194 84.4508C40.3801 84.66 39.9001 84.7789 39.4101 84.8H38.7339C37.7625 84.7917 36.8333 84.4181 36.1463 83.7598C35.4594 83.1015 35.0696 82.211 35.0609 81.28V80.96C34.9868 80.032 35.2919 79.1127 35.9119 78.3962C36.5318 77.6797 37.418 77.2221 38.3833 77.12H38.7506C39.6647 77.1201 40.546 77.4468 41.2221 78.0364C41.8983 78.6259 42.3207 79.4359 42.407 80.308V80.324L42.7409 80.96ZM47.7496 84.8C47.4157 84.16 47.4157 83.84 47.0817 83.2C46.7478 82.24 46.4139 81.92 45.7461 81.92H45.0783V84.8H43.4087V77.44H45.7461C46.1618 77.3714 46.5883 77.3937 46.9938 77.5052C47.3992 77.6168 47.7732 77.8146 48.0877 78.084L48.0835 78.08C48.5028 78.5155 48.7405 79.0835 48.7513 79.676C48.7402 80.0821 48.6103 80.481 48.3764 80.8198C48.1424 81.1585 47.8139 81.4275 47.4282 81.596L47.4157 81.6C48.0835 81.92 48.0835 82.24 48.4174 82.88C48.4925 83.6 48.7304 84.252 49.0977 84.82L49.0852 84.8H47.7496ZM56.0974 79.04H54.0939V84.8H52.4244V79.04H50.087V77.76H55.7635V79.04H56.0974Z" fill="#699BF7"/>
<path d="M16.3618 56.64C15.7334 54.0849 15.294 51.4904 15.047 48.876L15.0261 48.64H9.34961C9.79155 52.4911 11.3052 56.1576 13.7322 59.256L13.6905 59.2C14.4167 58.188 15.3058 57.336 16.3284 56.66L16.3618 56.64ZM27.7148 48.96H18.6992C18.7033 51.244 19.0707 53.448 19.7468 55.516L19.7009 55.36C22.2518 54.5241 24.8995 53.9895 27.5854 53.768L27.7148 53.76V48.96ZM27.7148 27.84C24.0418 28.48 21.7044 32.32 20.7027 35.2C22.752 35.984 25.127 36.548 27.6021 36.792L27.7148 36.8V27.84ZM27.7148 45.44V40.32C24.911 40.2521 22.1438 39.6922 19.5507 38.668L19.7009 38.72C19.0338 40.9013 18.6965 43.163 18.6992 45.436L27.7148 45.44Z" fill="#699BF7"/>
</g>
<defs>
<clipPath id="clip0_98_9">
<rect width="96" height="96" fill="white"/>
</clipPath>
</defs>
</svg>
