<svg width="8" height="13" viewBox="0 0 8 13" fill="none" xmlns="http://www.w3.org/2000/svg">
<path d="M6.33358 0.199707H1.66691C1.35749 0.199707 1.06075 0.331403 0.841953 0.565823C0.62316 0.800244 0.500244 1.11819 0.500244 1.44971V11.4497C0.500244 11.7812 0.62316 12.0992 0.841953 12.3336C1.06075 12.568 1.35749 12.6997 1.66691 12.6997H6.33358C6.643 12.6997 6.93974 12.568 7.15854 12.3336C7.37733 12.0992 7.50024 11.7812 7.50024 11.4497V1.44971C7.50024 1.11819 7.37733 0.800244 7.15854 0.565823C6.93974 0.331403 6.643 0.199707 6.33358 0.199707ZM4.58358 12.0747H3.41691V11.4497H4.58358V12.0747ZM6.33358 10.8247H1.66691V2.07471H6.33358V10.8247Z" fill="#6F6F6F"/>
</svg>
