<svg width="14" height="16" viewBox="0 0 14 16" fill="none" xmlns="http://www.w3.org/2000/svg">
<path fill-rule="evenodd" clip-rule="evenodd" d="M0.933594 7.44327C0.934336 5.71997 1.57386 4.06754 2.71153 2.84936C3.84919 1.63119 5.39185 0.947 7.00026 0.947266C10.35 0.947266 13.0669 3.85627 13.0669 7.44327C13.0669 10.1173 11.8181 12.2363 10.4797 13.6683C9.88808 14.3049 9.22502 14.8605 8.50573 15.3223C8.20519 15.5123 7.92426 15.6623 7.67973 15.7643C7.44919 15.8623 7.20746 15.9383 7.00026 15.9383C6.79306 15.9383 6.55133 15.8623 6.32079 15.7643C6.03531 15.6398 5.75917 15.492 5.49479 15.3223C4.77552 14.8605 4.11246 14.3049 3.52079 13.6683C2.18239 12.2363 0.933594 10.1173 0.933594 7.44327ZM7.00026 4.94427C6.38142 4.94427 5.78793 5.20766 5.35034 5.6765C4.91276 6.14534 4.66693 6.78122 4.66693 7.44427C4.66693 8.10731 4.91276 8.74319 5.35034 9.21203C5.78793 9.68087 6.38142 9.94427 7.00026 9.94427C7.6191 9.94427 8.21259 9.68087 8.65018 9.21203C9.08776 8.74319 9.33359 8.10731 9.33359 7.44427C9.33359 6.78122 9.08776 6.14534 8.65018 5.6765C8.21259 5.20766 7.6191 4.94427 7.00026 4.94427Z" fill="#6F6F6F"/>
</svg>
