<svg width="23" height="19" viewBox="0 0 23 19" fill="none" xmlns="http://www.w3.org/2000/svg">
<path d="M3.28571 0C1.47344 0 0 1.21719 0 2.71429V16.2857C0 17.7828 1.47344 19 3.28571 19H19.7143C21.5266 19 23 17.7828 23 16.2857V2.71429C23 1.21719 21.5266 0 19.7143 0H3.28571ZM18.0355 7.09531C18.0355 10.7723 14.6471 15.0092 8.45558 15.0092C6.54576 15.0092 4.77455 14.5511 3.28571 13.7623C3.55781 13.7877 3.81964 13.7962 4.09688 13.7962C5.67299 13.7962 7.12076 13.3551 8.27589 12.6087C6.79732 12.5833 5.55491 11.7817 5.12879 10.679C5.64732 10.7426 6.11451 10.7426 6.64844 10.6281C5.10826 10.3694 3.95313 9.24978 3.95313 7.89687V7.86295C4.39978 8.07076 4.92344 8.19799 5.47277 8.21496C5.01071 7.96049 4.6308 7.61696 4.36897 7.21406C4.10714 6.81116 3.96853 6.35737 3.97366 5.89933C3.97366 5.38192 4.13795 4.90692 4.43058 4.49554C6.08884 6.18348 8.57879 7.28616 11.3717 7.40491C10.8942 5.51763 12.6038 3.98661 14.6574 3.98661C15.6277 3.98661 16.5004 4.32165 17.1165 4.86451C17.8763 4.74576 18.6054 4.5125 19.2522 4.19442C19.0007 4.83906 18.4719 5.38192 17.7737 5.72545C18.4513 5.66607 19.1085 5.50915 19.7143 5.29286C19.2574 5.84844 18.6824 6.3404 18.0252 6.73482C18.0355 6.85357 18.0355 6.97656 18.0355 7.09531Z" fill="black"/>
</svg>
